<svg xmlns="http://www.w3.org/2000/svg" version="1.1" xmlns:xlink="http://www.w3.org/1999/xlink" xmlns:svgjs="http://svgjs.dev/svgjs" width="1920" height="1080" preserveAspectRatio="none" viewBox="0 0 1920 1080"><g mask="url(&quot;#SvgjsMask2110&quot;)" fill="none"><rect width="1920" height="1080" x="0" y="0" fill="url(&quot;#SvgjsLinearGradient2111&quot;)"></rect><path d="M63 1080L1143 0L1629 0L549 1080z" fill="url(&quot;#SvgjsLinearGradient2112&quot;)"></path><path d="M671.6 1080L1751.6 0L2363.6 0L1283.6 1080z" fill="url(&quot;#SvgjsLinearGradient2112&quot;)"></path><path d="M1866 1080L786 0L522 0L1602 1080z" fill="url(&quot;#SvgjsLinearGradient2113&quot;)"></path><path d="M1179.4 1080L99.40000000000009 0L-847.0999999999999 0L232.9000000000001 1080z" fill="url(&quot;#SvgjsLinearGradient2113&quot;)"></path><path d="M1357.1929535848863 1080L1920 517.1929535848864L1920 1080z" fill="url(&quot;#SvgjsLinearGradient2112&quot;)"></path><path d="M0 1080L562.8070464151136 1080L 0 517.1929535848864z" fill="url(&quot;#SvgjsLinearGradient2113&quot;)"></path></g><defs><mask id="SvgjsMask2110"><rect width="1920" height="1080" fill="#ffffff"></rect></mask><linearGradient x1="50%" y1="0%" x2="50%" y2="100%" gradientUnits="userSpaceOnUse" id="SvgjsLinearGradient2111"><stop stop-color="rgba(0, 0, 0, 0.99)" offset="0"></stop><stop stop-color="rgba(13, 10, 32, 1)" offset="0.46"></stop><stop stop-color="rgba(158, 0, 135, 1)" offset="1"></stop></linearGradient><linearGradient x1="0%" y1="100%" x2="100%" y2="0%" id="SvgjsLinearGradient2112"><stop stop-color="rgba(15, 70, 185, 0.2)" offset="0"></stop><stop stop-opacity="0" stop-color="rgba(15, 70, 185, 0.2)" offset="0.66"></stop></linearGradient><linearGradient x1="100%" y1="100%" x2="0%" y2="0%" id="SvgjsLinearGradient2113"><stop stop-color="rgba(15, 70, 185, 0.2)" offset="0"></stop><stop stop-opacity="0" stop-color="rgba(15, 70, 185, 0.2)" offset="0.66"></stop></linearGradient></defs></svg>